<?xml version="1.0" encoding="UTF-8"?>
<svg xmlns="http://www.w3.org/2000/svg" version="1.1" viewBox="0 0 563 125.7">
  <defs>
    <style>
      .cls-1 {
        fill: #e2e2e2;
      }
    </style>
  </defs>
  <!-- Generator: Adobe Illustrator 28.7.1, SVG Export Plug-In . SVG Version: 1.2.0 Build 142)  -->
  <g>
    <g id="Layer_1">
      <g id="Layer_1-2" data-name="Layer_1">
        <g id="Layer_1-2">
          <g>
            <path class="cls-1" d="M547.6,75.7c-7-9.3-14.3-18.7-21.3-28,5.4-7,10.6-13.7,15.9-20.7,4.8-6.4,9.8-12.7,14.8-19.1l5.9-7.7-9.6.2h-18.1c-4.3,0-7.8,0-11.1-.2h-.9c-5.7,0-9.8,2.3-13.1,7.1-3.5,5-7,9.8-11.1,14.9-1.7,2.1-3.3,4.2-5,6.4l-2.2,2.9,2.2,2.9c4.4,6,8.9,11.8,13.3,17.6l8.1,10.8c-3.1,4.1-6.5,8.3-9.8,12.6l-2.2,2.9,2.2,2.9c.7,1,1.5,1.9,2.2,2.9,2,2.7,4.1,5.4,5.9,7.9,1.9,2.5,4.3,3.9,7.2,3.9h32.2l9.1-.2-5.7-7.5-8.9-12.4h0ZM459.5,4.1c-2-2.7-4.4-3.9-7.6-3.9h-42.6l5.9,7.7c7.2,9.3,14.3,18.5,21.3,27.6,6.8,8.9,13.7,17.8,20.6,26.7-13.9,18.3-27.8,36.5-41.8,55l-5.7,7.7h42c3.9,0,6.1-2.1,7.4-3.9l.4-.4c13.5-17.6,27.4-35.7,41.1-53.5,1.9-2.3,3.1-6,0-10.2-15-18.9-28.3-36.3-40.9-52.9h0Z"/>
            <path class="cls-1" d="M18.1,95.4c-3.3,0-6.3-.8-9.1-2.5s-5-4.1-6.7-7c-1.7-2.9-2.4-6.2-2.4-9.7v-8.1h18.3v7.1c0,.2,0,.4.2.6s.2.2.4.2h53.1c.2,0,.4,0,.6-.2s.2-.4.2-.6v-17.4c0-.2,0-.4-.2-.4-.2-.2-.4-.2-.6-.2H18.1c-3.3,0-6.3-.8-9.1-2.5s-5-4.1-6.7-7c-1.7-2.9-2.3-6.2-2.3-9.7v-19.1c0-3.5.7-6.8,2.4-9.7,1.7-2.9,3.9-5.2,6.7-7C11.9,1,14.9,0,18.2,0h55C76.5,0,79.5.8,82.3,2.5c2.8,1.7,5,4.1,6.7,7,1.7,2.9,2.6,6,2.6,9.7v8.1h-18.5v-7.1c0-.2,0-.4-.2-.6-.4-.2-.6-.2-.7-.2H18.9c-.2,0-.4,0-.4.2-.2.2-.2.4-.2.6v17.4c0,.2,0,.4.2.4.1,0,.3.2.4.2h54.2c3.3,0,6.3.8,9.1,2.5,2.8,1.7,5,4.1,6.7,7s2.6,6.2,2.6,9.5v19.1c0,3.5-.9,6.8-2.6,9.7-1.7,2.9-3.9,5.2-6.7,7-2.8,1.7-5.7,2.5-9.1,2.5H18.1v.2s0-.3,0-.3Z"/>
            <path class="cls-1" d="M128.1,95.4l-28.9-76.9h19.3l16.8,42.3,17.6-42.3h18l18.9,42.9,15.7-42.9h19.3l-27.6,76.9h-13.9l-21.3-48.5-20,48.5h-13.9Z"/>
            <path class="cls-1" d="M250.1,95.4c-3.1,0-6.1-.8-8.9-2.5-2.8-1.7-5-4.1-6.5-6.8-1.7-2.9-2.4-6-2.4-9.3v-29.4h56.5v-9.3c0-.2,0-.4-.2-.6-.2-.2-.4-.2-.6-.2h-55.9v-18.9h56.7c3.3,0,6.3.8,9.1,2.5,2.8,1.7,4.8,4.1,6.5,6.8,1.7,2.9,2.4,6,2.4,9.3v58.1h-56.7v.2h0ZM250.9,76.5h38v-12.4h-38.5v11.6c0,.2,0,.4.2.6s.3.2.4.2h0Z"/>
            <path class="cls-1" d="M320.5,125.7V18.5h56.7c3.3,0,6.3.8,9.1,2.5,2.8,1.7,4.8,4.1,6.5,6.8,1.7,2.9,2.4,6,2.4,9.3v39.4c0,3.3-.7,6.4-2.4,9.3-1.7,2.9-3.7,5-6.5,6.8-2.8,1.7-5.7,2.5-9.1,2.5h-38.7v30.5h-18v.2h0ZM339.2,76.5h37c.2,0,.4,0,.6-.2s.2-.4.2-.6v-37.5c0-.2,0-.4-.2-.6-.2-.2-.4-.2-.6-.2h-37c-.2,0-.4,0-.6.2s-.2.4-.2.6v37.7c0,.2,0,.4.2.6,0,0,.6,0,.6,0Z"/>
          </g>
        </g>
      </g>
    </g>
  </g>
</svg>